<svg width="24" height="25" viewBox="0 0 24 25" xmlns="http://www.w3.org/2000/svg">
    <path fill-rule="evenodd" clip-rule="evenodd" d="M19.5604 4.54757C19.0924 4.07957 18.3364 4.07957 17.8684 4.54757L12.0004 10.4036L6.13236 4.53557C5.66436 4.06757 4.90836 4.06757 4.44036 4.53557C3.97236 5.00357 3.97236 5.75957 4.44036 6.22757L10.3084 12.0956L4.44036 17.9636C3.97236 18.4316 3.97236 19.1876 4.44036 19.6556C4.90836 20.1236 5.66436 20.1236 6.13236 19.6556L12.0004 13.7876L17.8684 19.6556C18.3364 20.1236 19.0924 20.1236 19.5604 19.6556C20.0284 19.1876 20.0284 18.4316 19.5604 17.9636L13.6924 12.0956L19.5604 6.22757C20.0164 5.77157 20.0164 5.00357 19.5604 4.54757Z" />
</svg>
