<svg width="24" height="24" viewBox="0 0 24 24" fill="currentColor" xmlns="http://www.w3.org/2000/svg">
    <path fill-rule="evenodd" clip-rule="evenodd" d="M6.79385 1.89094C7.45249 1.9645 7.92681 2.55806 7.85325 3.21671L7.66348 4.91604C7.79943 4.83634 7.9371 4.76068 8.07594 4.68907C9.3106 4.05231 10.7289 3.6882 12.067 3.6882C16.6863 3.6882 20.4309 7.43286 20.4309 12.0521C20.4309 16.6714 16.6863 20.4161 12.067 20.4161C8.69466 20.4161 5.79098 18.4203 4.46795 15.5506C4.19047 14.9487 4.45344 14.2359 5.05529 13.9584C5.65715 13.6809 6.36999 13.9439 6.64747 14.5458C7.59299 16.5966 9.66547 18.0161 12.067 18.0161C15.3608 18.0161 18.0309 15.3459 18.0309 12.0521C18.0309 8.75834 15.3608 6.0882 12.067 6.0882C11.141 6.0882 10.0976 6.34682 9.17603 6.8221C8.94193 6.94283 8.72147 7.07447 8.51663 7.21519L10.1049 7.43607C10.7613 7.52736 11.2194 8.1335 11.1281 8.78992C11.0368 9.44635 10.4307 9.90448 9.77427 9.81319L5.93617 9.27941C5.29224 9.18986 4.83673 8.60379 4.90888 7.95767L5.46808 2.95035C5.54163 2.2917 6.1352 1.81739 6.79385 1.89094Z" />
</svg>
