<svg width="24" height="24" viewBox="0 0 24 24" fill="currentColor" xmlns="http://www.w3.org/2000/svg">
    <path fill-rule="evenodd" clip-rule="evenodd" d="M7.56212 8.9543C7.94872 8.9543 8.26212 9.2677 8.26212 9.6543V18.2998C8.26212 18.4655 8.39644 18.5998 8.56212 18.5998H15.4376C15.6033 18.5998 15.7376 18.4655 15.7376 18.2998V9.6543C15.7376 9.2677 16.051 8.9543 16.4376 8.9543C16.8242 8.9543 17.1376 9.2677 17.1376 9.6543V18.2998C17.1376 19.2387 16.3765 19.9998 15.4376 19.9998H8.56212C7.62324 19.9998 6.86212 19.2387 6.86212 18.2998V9.6543C6.86212 9.2677 7.17552 8.9543 7.56212 8.9543Z" />
    <path fill-rule="evenodd" clip-rule="evenodd" d="M10.5275 9.70703C10.8036 9.70703 11.0275 9.93089 11.0275 10.207V15.9391C11.0275 16.2153 10.8036 16.4391 10.5275 16.4391C10.2513 16.4391 10.0275 16.2153 10.0275 15.9391V10.207C10.0275 9.93089 10.2513 9.70703 10.5275 9.70703Z" />
    <path fill-rule="evenodd" clip-rule="evenodd" d="M13.4523 9.70703C13.7284 9.70703 13.9523 9.93089 13.9523 10.207V15.9391C13.9523 16.2153 13.7284 16.4391 13.4523 16.4391C13.1761 16.4391 12.9523 16.2153 12.9523 15.9391V10.207C12.9523 9.93089 13.1761 9.70703 13.4523 9.70703Z" />
    <path fill-rule="evenodd" clip-rule="evenodd" d="M5.31085 7.25657C5.31085 6.86997 5.62425 6.55657 6.01085 6.55657L17.9891 6.55657C18.3757 6.55657 18.6891 6.86997 18.6891 7.25657C18.6891 7.64317 18.3757 7.95657 17.9891 7.95657L6.01085 7.95657C5.62425 7.95657 5.31085 7.64317 5.31085 7.25657Z" />
    <path fill-rule="evenodd" clip-rule="evenodd" d="M10.3068 5.40019C10.1411 5.40019 10.0068 5.53451 10.0068 5.70019V6.86426C10.0068 7.25086 9.69335 7.56426 9.30675 7.56426C8.92015 7.56426 8.60675 7.25086 8.60675 6.86426V5.70019C8.60675 4.76131 9.36787 4.00019 10.3068 4.00019H13.693C14.6319 4.00019 15.393 4.76131 15.393 5.70019V6.86426C15.393 7.25086 15.0796 7.56426 14.693 7.56426C14.3064 7.56426 13.993 7.25086 13.993 6.86426V5.70019C13.993 5.53451 13.8587 5.40019 13.693 5.40019H10.3068Z" />
</svg>
